<svg id="Group_58" data-name="Group 58" xmlns="http://www.w3.org/2000/svg" width="398.087" height="62.676" viewBox="0 0 398.087 62.676">
  <g id="Group_17" data-name="Group 17" transform="translate(0 0)">
    <path id="Path_20" data-name="Path 20" d="M169.649,21.842V13.39a5.209,5.209,0,0,1,.855-3.039,5.729,5.729,0,0,1,2.184-1.8,12.5,12.5,0,0,1,2.849-.855c1.045-.095,2.089-.19,3.039-.19a12.135,12.135,0,0,1,6.647,1.709,6.562,6.562,0,0,1,2.944,5.223h9.5A14.913,14.913,0,0,0,195.669,7.5a14.3,14.3,0,0,0-4.463-4.463A18.573,18.573,0,0,0,185.033.665,34.571,34.571,0,0,0,178.005,0a28.132,28.132,0,0,0-6.268.665,18.142,18.142,0,0,0-5.6,2.184,13,13,0,0,0-3.988,3.894,10.338,10.338,0,0,0-1.519,5.793v8.642c-3.039-.095-6.173-.19-9.5-.19h0c-3.419,0-6.552,0-9.591.19V12.535a10.129,10.129,0,0,0-1.519-5.793,13,13,0,0,0-3.988-3.894,17.256,17.256,0,0,0-5.6-2.184A28.132,28.132,0,0,0,124.161,0a34.572,34.572,0,0,0-7.027.665,18.573,18.573,0,0,0-6.173,2.374A13.373,13.373,0,0,0,106.5,7.5a14.914,14.914,0,0,0-1.994,6.932H114a6.561,6.561,0,0,1,2.944-5.223A11.7,11.7,0,0,1,123.591,7.5c.95,0,1.994.095,3.039.19a7.124,7.124,0,0,1,2.849.855,5.73,5.73,0,0,1,2.184,1.8,5.009,5.009,0,0,1,.855,3.039v8.452c-12.915,1.329-21.747,4.463-26.78,9.4A16.552,16.552,0,0,0,100.8,43.3a14.671,14.671,0,0,0,4.463,11.206c5.7,5.6,16.429,8.167,33.9,8.167h2.279V28.3c2.944-.095,6.078-.19,9.591-.19,0,0,6.647,0,9.591.19l.1,34.377H163.1c17.378,0,28.2-2.659,33.9-8.167A14.813,14.813,0,0,0,201.461,43.3a16.187,16.187,0,0,0-4.938-12.06C191.4,26.3,182.564,23.171,169.649,21.842ZM132.423,55.459c-13.675-.665-19.562-3.514-22.032-5.983a7.814,7.814,0,0,1-2.279-6.078,9.161,9.161,0,0,1,2.754-6.932c2.754-2.754,8.737-5.793,21.652-7.312C132.518,39.885,132.423,52.515,132.423,55.459Zm59.352-5.983c-2.469,2.469-8.357,5.223-22.127,5.983,0-5.888,0-17-.095-26.21,12.915,1.424,18.9,4.558,21.747,7.312a9.161,9.161,0,0,1,2.754,6.932A7.3,7.3,0,0,1,191.775,49.476Z" transform="translate(-5.077 0)" fill="#958225"/>
    <path id="Path_21" data-name="Path 21" d="M239.219,34.447a10.849,10.849,0,0,0-2.944-2.944,13.921,13.921,0,0,0-3.419-1.614,15.234,15.234,0,0,0-2.659-.665c-2.184-.57-3.893-.95-5.223-1.329a19.915,19.915,0,0,1-3.134-1.045,4.181,4.181,0,0,1-1.519-1.14,2.717,2.717,0,0,1-.38-1.614,3.378,3.378,0,0,1,.475-1.8,5.077,5.077,0,0,1,1.235-1.235,4.837,4.837,0,0,1,1.614-.665,11.635,11.635,0,0,1,1.8-.19,10.591,10.591,0,0,1,2.564.285,6.9,6.9,0,0,1,2.089.855,3.918,3.918,0,0,1,1.424,1.614,6.329,6.329,0,0,1,.665,2.564h7.312a10.118,10.118,0,0,0-1.14-5.033,9.644,9.644,0,0,0-3.039-3.419,12.989,12.989,0,0,0-4.368-1.9,22.332,22.332,0,0,0-5.128-.57,15.14,15.14,0,0,0-4.558.665,11.549,11.549,0,0,0-4.083,1.9,9.613,9.613,0,0,0-2.944,3.229,9.023,9.023,0,0,0-1.14,4.558,8.537,8.537,0,0,0,.855,3.988,8.064,8.064,0,0,0,2.279,2.754,13.423,13.423,0,0,0,3.229,1.8,27.606,27.606,0,0,0,3.7,1.14c1.234.38,2.469.665,3.7.95a21.535,21.535,0,0,1,3.229,1.045A6.688,6.688,0,0,1,232,38.056a3.08,3.08,0,0,1,.855,2.279,2.914,2.914,0,0,1-.665,2.089,4.641,4.641,0,0,1-1.709,1.329,8.337,8.337,0,0,1-2.184.665,18.544,18.544,0,0,1-2.184.19,9.389,9.389,0,0,1-2.849-.38,6.881,6.881,0,0,1-2.374-1.14,5.232,5.232,0,0,1-1.614-1.9,6.736,6.736,0,0,1-.665-2.944H211.3a12.687,12.687,0,0,0,1.14,5.508,11.309,11.309,0,0,0,3.229,3.8,15,15,0,0,0,4.653,2.184,21.341,21.341,0,0,0,5.508.665A20.2,20.2,0,0,0,232,49.547a14.09,14.09,0,0,0,4.463-2.279,9.1,9.1,0,0,0,2.754-3.514,10.9,10.9,0,0,0,.95-4.368A7.141,7.141,0,0,0,239.219,34.447Z" transform="translate(-10.642 -0.735)" fill="#958225"/>
    <path id="Path_22" data-name="Path 22" d="M94.234,16.7H85.688L73.437,29.615V16.7H66.6V47.848h6.837V37.782l3.988-3.894,9.4,13.96h8.547l-13.39-18.9Z" transform="translate(-3.354 -0.841)" fill="#958225"/>
    <path id="Path_23" data-name="Path 23" d="M27.734,33.86H37.99V30.252H27.734V25.6H39.32v-3.7H23.841V43.262H39.32V39.653H27.734Zm-15.384-.38c0,4.653-1.994,6.173-5.7,6.173H3.994V25.6H6.652c3.7,0,5.7,1.519,5.7,6.173ZM.1,43.262H6.747c5.793,0,9.591-2.754,9.591-9.876V31.676c0-7.027-3.8-9.876-9.591-9.876H.1V43.262Z" transform="translate(-0.005 -1.098)" fill="#25332d"/>
    <path id="Path_24" data-name="Path 24" d="M401.547,25.473c3.134,0,4.178,1.045,4.178,2.754,0,1.519-1.045,2.659-4.178,2.659h-4.178V25.473Zm5.318,17.758h4.558l-6.078-9.211a5.62,5.62,0,0,0,4.368-5.793c0-3.7-2.279-6.458-8.167-6.458h-8.167V43.137h3.988V34.495h3.8Zm-31.908-9.5h10.256V30.127H374.958V25.473h11.585v-3.7H371.064V43.137h15.479V39.528H374.958ZM359,43.232h3.989V21.865H359ZM343.145,25.473c3.134,0,4.178,1.045,4.178,2.754,0,1.519-1.045,2.659-4.178,2.659h-4.178V25.473Zm5.318,17.758h4.558l-6.078-9.211a5.62,5.62,0,0,0,4.368-5.793c0-3.7-2.279-6.458-8.167-6.458h-8.167V43.137h3.988V34.495h3.8Zm-31.908-9.5h10.256V30.127H316.555V25.473h11.586v-3.7H312.662V43.137h15.479V39.528H316.555ZM287.5,33.26c0,7.5,3.7,10.446,8.832,10.446s8.832-2.944,8.832-10.446V31.646c0-7.5-3.7-10.446-8.832-10.446-5.033,0-8.832,2.944-8.832,10.446Zm13.675,0c0,5.033-1.9,6.742-4.843,6.742-2.849,0-4.843-1.614-4.843-6.742V31.646c0-5.033,1.9-6.742,4.843-6.742,2.849,0,4.843,1.614,4.843,6.742ZM264.8,43.232h3.988V21.865H264.8Zm4.368-11.206,8.262,11.206h4.653l-8.262-11.206,7.6-10.161h-4.653Z" transform="translate(-13.337 -1.068)" fill="#25332d"/>
    <rect id="Rectangle_8" data-name="Rectangle 8" width="90.595" height="1.424" transform="translate(0 3.039)" fill="#25332d"/>
    <rect id="Rectangle_9" data-name="Rectangle 9" width="90.595" height="1.424" transform="translate(0 58.308)" fill="#25332d"/>
    <rect id="Rectangle_10" data-name="Rectangle 10" width="194.96" height="1.424" transform="translate(203.127 3.039)" fill="#25332d"/>
    <rect id="Rectangle_11" data-name="Rectangle 11" width="194.96" height="1.424" transform="translate(203.127 58.308)" fill="#25332d"/>
  </g>
</svg>
