<?xml version="1.0" standalone="no"?>
<svg xmlns="http://www.w3.org/2000/svg" width="175.4" height="173.6" viewBox="0 0 175.4 173.6"><defs><style>.a{fill:#fff;}.b{fill:#958225;}</style></defs><g transform="translate(30 126.4)"><path class="a" d="M38.8,126.4l1.6,1.6-8.8,8.4L30,134.8Zm4.7,5,1.8,1.9-7.2.8-1.4,7.8L34.9,140l1.4-7.8Z" transform="translate(-30 -126.4)"/><path class="a" d="M47.4,142.1c2.2-3.6,4.9-3.9,7.4-2.4s3.4,4.1,1.2,7.7l-.5.8c-2.2,3.6-4.9,3.9-7.4,2.4s-3.4-4-1.2-7.7Zm6.6,4.1c1.5-2.5,1.1-3.8-.4-4.7-1.4-.9-2.8-.6-4.3,1.8l-.5.8c-1.5,2.5-1.1,3.8.3,4.7s2.8.7,4.4-1.8Z" transform="translate(-30 -126.4)"/><path class="a" d="M65.1,155.7l6.3,2-.6,2-8.5-2.6,3.6-11.6,8.5,2.6-.6,2-6.3-2-.8,2.5,5.6,1.7-.6,2-5.6-1.7Z" transform="translate(-30 -126.4)"/><path class="a" d="M87,156.5H84.8l-.1,4.9H82.4l.2-12.2,4.6.1c3.3.1,4.6,1.6,4.6,3.7a3.166,3.166,0,0,1-2.6,3.2l3.4,5.3H90Zm-2-5.2-.1,3.1h2.4c1.8,0,2.4-.6,2.4-1.5s-.6-1.6-2.4-1.6Z" transform="translate(-30 -126.4)"/><path class="a" d="M101.3,148l2.2-.5,2.7,11.8-2.2.5Z" transform="translate(-30 -126.4)"/><path class="a" d="M120.1,151.7l5.9-3,1,1.8-7.9,4.1-5.6-10.8,7.9-4.1,1,1.9-5.9,3,1.2,2.3,5.2-2.7,1,1.8-5.2,2.7Z" transform="translate(-30 -126.4)"/><path class="a" d="M137.8,135.6l-1.5,1.6,3.5,3.4-1.6,1.6-8.7-8.5,3.3-3.3c2.3-2.4,4.4-2.2,5.9-.8a3.247,3.247,0,0,1,.6,4.1l6.2,1.2-1.8,1.9Zm-5.2-2.1,2.2,2.2,1.7-1.7c1.3-1.3,1.2-2.2.6-2.8-.7-.7-1.5-.7-2.8.6Z" transform="translate(-30 -126.4)"/></g><g transform="translate(71.9 23.8)"><path class="a" d="M71.9,23.8h5.3c4.7,0,7.7,2.2,7.7,7.9V33c0,5.6-3,7.9-7.7,7.9H71.9Zm9.9,7.9c0-3.7-1.6-5-4.5-5H75.1V38h2.2c3,0,4.5-1.2,4.5-5Z" transform="translate(-71.9 -23.8)"/><path class="a" d="M94.2,38h9.3v3H91V23.8h12.4v3H94.1v3.7h8.2v2.9H94.1V38Z" transform="translate(-71.9 -23.8)"/></g><path class="a" d="M166.2,118.5A84.943,84.943,0,0,1,87.7,172a83.692,83.692,0,0,1-50.9-17.1A84.772,84.772,0,0,1,9.2,118.5H7.4a86.8,86.8,0,0,0,28.4,37.7,85.157,85.157,0,0,0,51.9,17.4A86.429,86.429,0,0,0,168,118.5h-1.8Z"/><path class="a" d="M9.2,55.1A84.647,84.647,0,0,1,87.7,1.7a83.692,83.692,0,0,1,50.9,17.1,84.772,84.772,0,0,1,27.6,36.4H168a86.8,86.8,0,0,0-28.4-37.7A84.834,84.834,0,0,0,87.7,0,86.328,86.328,0,0,0,7.4,55.1Z"/><g transform="translate(0 53.7)"><path class="b" d="M106.7,76.7V67.8a5.486,5.486,0,0,1,.9-3.2,6.033,6.033,0,0,1,2.3-1.9,13.164,13.164,0,0,1,3-.9c1.1-.1,2.2-.2,3.2-.2a12.778,12.778,0,0,1,7,1.8,6.909,6.909,0,0,1,3.1,5.5h10a15.705,15.705,0,0,0-2.1-7.3,15.062,15.062,0,0,0-4.7-4.7,19.558,19.558,0,0,0-6.5-2.5,36.4,36.4,0,0,0-7.4-.7,29.624,29.624,0,0,0-6.6.7,19.1,19.1,0,0,0-5.9,2.3,13.693,13.693,0,0,0-4.2,4.1,10.887,10.887,0,0,0-1.6,6.1V76c-3.2-.1-6.5-.2-10-.2h0c-3.6,0-6.9,0-10.1.2V66.9a10.666,10.666,0,0,0-1.6-6.1,13.693,13.693,0,0,0-4.2-4.1,18.171,18.171,0,0,0-5.9-2.3,29.624,29.624,0,0,0-6.6-.7,36.4,36.4,0,0,0-7.4.7,19.558,19.558,0,0,0-6.5,2.5,14.082,14.082,0,0,0-4.7,4.7,15.705,15.705,0,0,0-2.1,7.3h10a6.909,6.909,0,0,1,3.1-5.5,12.321,12.321,0,0,1,7-1.8c1,0,2.1.1,3.2.2a7.5,7.5,0,0,1,3,.9,6.033,6.033,0,0,1,2.3,1.9,5.275,5.275,0,0,1,.9,3.2v8.9C54,78.1,44.7,81.4,39.4,86.6a17.43,17.43,0,0,0-5.2,12.7,15.449,15.449,0,0,0,4.7,11.8c6,5.9,17.3,8.6,35.7,8.6H77V83.5c3.1-.1,6.4-.2,10.1-.2,0,0,7,0,10.1.2l.1,36.2h2.5c18.3,0,29.7-2.8,35.7-8.6a15.6,15.6,0,0,0,4.7-11.8A17.046,17.046,0,0,0,135,86.6C129.7,81.4,120.3,78.1,106.7,76.7ZM67.5,112.1c-14.4-.7-20.6-3.7-23.2-6.3a8.228,8.228,0,0,1-2.4-6.4,9.646,9.646,0,0,1,2.9-7.3c2.9-2.9,9.2-6.1,22.8-7.7C67.6,95.7,67.5,109,67.5,112.1Zm62.5-6.3c-2.6,2.6-8.8,5.5-23.3,6.3,0-6.2,0-17.9-.1-27.6,13.6,1.5,19.9,4.8,22.9,7.7a9.646,9.646,0,0,1,2.9,7.3A7.808,7.808,0,0,1,130,105.8Z" transform="translate(0 -53.7)"/><path class="b" d="M174.1,89.2a11.425,11.425,0,0,0-3.1-3.1,14.659,14.659,0,0,0-3.6-1.7,16.044,16.044,0,0,0-2.8-.7c-2.3-.6-4.1-1-5.5-1.4a20.974,20.974,0,0,1-3.3-1.1,4.4,4.4,0,0,1-1.6-1.2,2.861,2.861,0,0,1-.4-1.7,3.557,3.557,0,0,1,.5-1.9,5.347,5.347,0,0,1,1.3-1.3,5.094,5.094,0,0,1,1.7-.7,12.253,12.253,0,0,1,1.9-.2,11.153,11.153,0,0,1,2.7.3,7.261,7.261,0,0,1,2.2.9,4.125,4.125,0,0,1,1.5,1.7,6.664,6.664,0,0,1,.7,2.7H174a10.655,10.655,0,0,0-1.2-5.3,10.155,10.155,0,0,0-3.2-3.6,13.678,13.678,0,0,0-4.6-2,23.517,23.517,0,0,0-5.4-.6,15.943,15.943,0,0,0-4.8.7,12.161,12.161,0,0,0-4.3,2,10.122,10.122,0,0,0-3.1,3.4,9.5,9.5,0,0,0-1.2,4.8,8.989,8.989,0,0,0,.9,4.2,8.492,8.492,0,0,0,2.4,2.9,14.135,14.135,0,0,0,3.4,1.9,29.066,29.066,0,0,0,3.9,1.2c1.3.4,2.6.7,3.9,1a22.674,22.674,0,0,1,3.4,1.1,7.042,7.042,0,0,1,2.4,1.5,3.244,3.244,0,0,1,.9,2.4,3.069,3.069,0,0,1-.7,2.2,4.887,4.887,0,0,1-1.8,1.4,8.78,8.78,0,0,1-2.3.7,19.526,19.526,0,0,1-2.3.2,9.887,9.887,0,0,1-3-.4,7.246,7.246,0,0,1-2.5-1.2,5.51,5.51,0,0,1-1.7-2,7.094,7.094,0,0,1-.7-3.1H145a13.361,13.361,0,0,0,1.2,5.8,11.909,11.909,0,0,0,3.4,4,15.8,15.8,0,0,0,4.9,2.3,22.473,22.473,0,0,0,5.8.7,21.268,21.268,0,0,0,6.5-.9,14.838,14.838,0,0,0,4.7-2.4,9.582,9.582,0,0,0,2.9-3.7,11.478,11.478,0,0,0,1-4.6A9.486,9.486,0,0,0,174.1,89.2Z" transform="translate(0 -53.7)"/><path class="b" d="M29.1,70.3h-9L7.2,84V70.3H0v32.9H7.2V92.6l4.2-4.2,9.9,14.8h9.1L16.3,83.3Z" transform="translate(0 -53.7)"/></g></svg>