<svg xmlns="http://www.w3.org/2000/svg" width="181.385" height="180" viewBox="0 0 181.385 180">
  <g id="Group_225" data-name="Group 225" transform="translate(-3348.279 -1481)">
    <g id="Group_128" data-name="Group 128" transform="translate(2478 -1801)">
      <ellipse id="Ellipse_7" data-name="Ellipse 7" cx="89" cy="90" rx="89" ry="90" transform="translate(872 3282)" fill="#25332d"/>
      <g id="Group_127" data-name="Group 127" transform="translate(870.279 3282.08)">
        <g id="Group_6" data-name="Group 6" transform="translate(0 0)">
          <g id="Group_4" data-name="Group 4">
            <g id="Group_1" data-name="Group 1" transform="translate(31.024 130.713)">
              <path id="Path_1" data-name="Path 1" d="M39.1,126.4l1.655,1.655-9.1,8.687L30,135.087Zm4.86,5.171,1.861,1.965-7.446.827-1.448,8.066-1.861-1.965,1.448-8.066Z" transform="translate(-30 -126.4)" fill="#fff"/>
              <path id="Path_2" data-name="Path 2" d="M47.46,142.211c2.275-3.723,5.067-4.033,7.653-2.482s3.516,4.24,1.241,7.963l-.517.827c-2.275,3.723-5.067,4.033-7.653,2.482s-3.516-4.137-1.241-7.963Zm6.825,4.24c1.551-2.585,1.138-3.93-.414-4.86-1.448-.931-2.9-.62-4.447,1.861l-.517.827c-1.551,2.585-1.138,3.93.31,4.86s2.9.724,4.55-1.861Z" transform="translate(-29.466 -125.975)" fill="#fff"/>
              <path id="Path_3" data-name="Path 3" d="M65.2,156.048l6.515,2.068-.62,2.068L62.3,157.5l3.723-12,8.79,2.689-.62,2.068-6.515-2.068-.827,2.585,5.791,1.758-.62,2.068-5.791-1.758Z" transform="translate(-28.898 -125.748)" fill="#fff"/>
              <path id="Path_4" data-name="Path 4" d="M87.157,156.749H84.882l-.1,5.067H82.4l.207-12.616,4.757.1c3.413.1,4.757,1.655,4.757,3.826a3.274,3.274,0,0,1-2.689,3.309l3.516,5.481H90.259Zm-2.068-5.377-.1,3.206h2.482c1.861,0,2.482-.62,2.482-1.551s-.62-1.655-2.482-1.655Z" transform="translate(-28.212 -125.622)" fill="#fff"/>
              <path id="Path_5" data-name="Path 5" d="M101.3,148.017l2.275-.517,2.792,12.2-2.275.517Z" transform="translate(-27.567 -125.68)" fill="#fff"/>
              <path id="Path_6" data-name="Path 6" d="M120.325,152.11l6.1-3.1,1.034,1.861-8.17,4.24L113.5,143.94l8.17-4.24,1.034,1.965-6.1,3.1,1.241,2.378,5.377-2.792,1.034,1.861-5.377,2.792Z" transform="translate(-27.151 -125.946)" fill="#fff"/>
              <path id="Path_7" data-name="Path 7" d="M138.083,135.84l-1.551,1.655,3.619,3.516-1.655,1.655-9-8.79,3.413-3.413c2.378-2.482,4.55-2.275,6.1-.827a3.358,3.358,0,0,1,.62,4.24l6.412,1.241-1.861,1.965Zm-5.377-2.172,2.275,2.275,1.758-1.758c1.344-1.344,1.241-2.275.62-2.9-.724-.724-1.551-.724-2.9.621Z" transform="translate(-26.605 -126.326)" fill="#fff"/>
            </g>
            <g id="Group_2" data-name="Group 2" transform="translate(74.354 24.612)">
              <path id="Path_8" data-name="Path 8" d="M71.9,23.8h5.481c4.86,0,7.963,2.275,7.963,8.17v1.344c0,5.791-3.1,8.17-7.963,8.17H71.9Zm10.238,8.17c0-3.826-1.655-5.171-4.654-5.171H75.209V38.485h2.275c3.1,0,4.654-1.241,4.654-5.171Z" transform="translate(-71.9 -23.8)" fill="#fff"/>
              <path id="Path_9" data-name="Path 9" d="M94.309,38.485h9.617v3.1H91V23.8h12.823v3.1H94.206v3.826h8.48v3h-8.48v4.757Z" transform="translate(-71.248 -23.8)" fill="#fff"/>
            </g>
            <path id="Path_10" data-name="Path 10" d="M171.619,118.5A87.842,87.842,0,0,1,90.44,173.826,86.548,86.548,0,0,1,37.8,156.142,87.665,87.665,0,0,1,9.261,118.5H7.4a89.76,89.76,0,0,0,29.369,38.987A88.063,88.063,0,0,0,90.44,175.48a89.379,89.379,0,0,0,83.04-56.98Z" transform="translate(0.253 4.044)" fill="#fff"/>
            <path id="Path_11" data-name="Path 11" d="M9.261,56.98A87.536,87.536,0,0,1,90.44,1.758a86.548,86.548,0,0,1,52.637,17.684,87.665,87.665,0,0,1,28.542,37.642h1.861A89.76,89.76,0,0,0,144.111,18.1,87.729,87.729,0,0,0,90.44,0,89.274,89.274,0,0,0,7.4,56.98Z" transform="translate(0.253)" fill="#fff"/>
            <g id="Group_3" data-name="Group 3" transform="translate(0 55.533)">
              <path id="Path_12" data-name="Path 12" d="M109.174,77.485v-9.2a5.673,5.673,0,0,1,.931-3.309,6.239,6.239,0,0,1,2.378-1.965,13.613,13.613,0,0,1,3.1-.931c1.138-.1,2.275-.207,3.309-.207a13.214,13.214,0,0,1,7.239,1.861,7.145,7.145,0,0,1,3.206,5.688h10.341a16.241,16.241,0,0,0-2.172-7.549,15.576,15.576,0,0,0-4.86-4.86,20.225,20.225,0,0,0-6.722-2.585,37.648,37.648,0,0,0-7.653-.724,30.635,30.635,0,0,0-6.825.724,19.757,19.757,0,0,0-6.1,2.378A14.161,14.161,0,0,0,101,61.042,11.259,11.259,0,0,0,99.35,67.35v9.411c-3.309-.1-6.722-.207-10.341-.207h0c-3.723,0-7.135,0-10.445.207V67.35a11.03,11.03,0,0,0-1.655-6.308,14.161,14.161,0,0,0-4.343-4.24,18.791,18.791,0,0,0-6.1-2.378,30.634,30.634,0,0,0-6.825-.724,37.647,37.647,0,0,0-7.653.724,20.225,20.225,0,0,0-6.722,2.585,14.563,14.563,0,0,0-4.86,4.86,16.241,16.241,0,0,0-2.172,7.549H48.574a7.145,7.145,0,0,1,3.206-5.688,12.742,12.742,0,0,1,7.239-1.861c1.034,0,2.172.1,3.309.207a7.758,7.758,0,0,1,3.1.931,6.239,6.239,0,0,1,2.378,1.965,5.454,5.454,0,0,1,.931,3.309v9.2c-14.064,1.448-23.681,4.86-29.162,10.238A18.025,18.025,0,0,0,34.2,100.856c0,5.067,1.551,9,4.86,12.2,6.2,6.1,17.89,8.893,36.918,8.893h2.482V84.517c3.206-.1,6.618-.207,10.445-.207,0,0,7.239,0,10.445.207l.1,37.435h2.585c18.924,0,30.714-2.9,36.918-8.893a16.13,16.13,0,0,0,4.86-12.2,17.627,17.627,0,0,0-5.377-13.133C132.959,82.345,123.238,78.933,109.174,77.485ZM68.636,114.093c-14.891-.724-21.3-3.826-23.992-6.515a8.509,8.509,0,0,1-2.482-6.618,9.976,9.976,0,0,1,3-7.549c3-3,9.514-6.308,23.578-7.963C68.74,97.133,68.636,110.887,68.636,114.093Zm64.633-6.515c-2.689,2.689-9.1,5.688-24.1,6.515,0-6.412,0-18.511-.1-28.542,14.064,1.551,20.579,4.964,23.681,7.963a9.975,9.975,0,0,1,3,7.549A8.075,8.075,0,0,1,133.269,107.578Z" transform="translate(1.167 -53.7)" fill="#958225"/>
              <path id="Path_13" data-name="Path 13" d="M175.093,89.913a11.815,11.815,0,0,0-3.206-3.206,15.159,15.159,0,0,0-3.723-1.758,16.592,16.592,0,0,0-2.9-.724c-2.378-.62-4.24-1.034-5.688-1.448a21.69,21.69,0,0,1-3.413-1.138,4.554,4.554,0,0,1-1.655-1.241,2.959,2.959,0,0,1-.414-1.758,3.679,3.679,0,0,1,.517-1.965,5.529,5.529,0,0,1,1.344-1.344,5.267,5.267,0,0,1,1.758-.724,12.67,12.67,0,0,1,1.965-.207,11.534,11.534,0,0,1,2.792.31,7.508,7.508,0,0,1,2.275.931A4.266,4.266,0,0,1,166.3,77.4a6.891,6.891,0,0,1,.724,2.792h7.963a11.019,11.019,0,0,0-1.241-5.481,10.5,10.5,0,0,0-3.309-3.723,14.144,14.144,0,0,0-4.757-2.068,24.319,24.319,0,0,0-5.584-.62,16.488,16.488,0,0,0-4.964.724,12.576,12.576,0,0,0-4.447,2.068,10.468,10.468,0,0,0-3.206,3.516,9.826,9.826,0,0,0-1.241,4.964,9.3,9.3,0,0,0,.931,4.343,8.781,8.781,0,0,0,2.482,3,14.617,14.617,0,0,0,3.516,1.965A30.058,30.058,0,0,0,157.2,90.12c1.344.414,2.689.724,4.033,1.034a23.448,23.448,0,0,1,3.516,1.138,7.282,7.282,0,0,1,2.482,1.551,3.354,3.354,0,0,1,.931,2.482,3.174,3.174,0,0,1-.724,2.275,5.054,5.054,0,0,1-1.861,1.448,9.079,9.079,0,0,1-2.379.724,20.192,20.192,0,0,1-2.378.207,10.224,10.224,0,0,1-3.1-.414,7.493,7.493,0,0,1-2.585-1.241,5.7,5.7,0,0,1-1.758-2.068,7.336,7.336,0,0,1-.724-3.206H145a13.817,13.817,0,0,0,1.241,6,12.316,12.316,0,0,0,3.516,4.137,16.337,16.337,0,0,0,5.067,2.379,23.24,23.24,0,0,0,6,.724,21.994,21.994,0,0,0,6.722-.931,15.344,15.344,0,0,0,4.86-2.482,9.91,9.91,0,0,0,3-3.826,11.869,11.869,0,0,0,1.034-4.757A9.81,9.81,0,0,0,175.093,89.913Z" transform="translate(4.948 -53.202)" fill="#958225"/>
              <path id="Path_14" data-name="Path 14" d="M30.093,70.3H20.786L7.446,84.468V70.3H0v34.023H7.446V93.361l4.343-4.343,10.238,15.305h9.411L16.856,83.744Z" transform="translate(0 -53.134)" fill="#958225"/>
            </g>
          </g>
        </g>
      </g>
    </g>
  </g>
</svg>
